<?xml version="1.0" encoding="utf-8"?>
<!-- Generator: Adobe Illustrator 24.1.1, SVG Export Plug-In . SVG Version: 6.00 Build 0)  -->
<svg version="1.1" id="Layer_1" xmlns="http://www.w3.org/2000/svg" xmlns:xlink="http://www.w3.org/1999/xlink" x="0px" y="0px"
     viewBox="0 0 512 512" style="enable-background:new 0 0 512 512;" xml:space="preserve">
  <g>
	<path fill="#d22856"  d="M397,13.8c-8.1-0.8-16.2-0.8-23.5-0.8c-57.5,0-85.9,25.1-117.5,62.4
		C224.4,37.3,196.9,13,138.5,13c-7.3,0-14.6,0.8-23.5,0.8C64.8,18.6,7.3,64.8,0,152.3v29.2C8.1,265.7,71.3,369.4,256.8,499
		C442.3,369.4,505.5,265.7,512,181.5v-29.2C504.7,64.8,447.2,18.6,397,13.8z M456.1,179c-6.5,73.7-73.7,158-199.3,251.1
		C131.2,337,64,252.8,57.5,179v-24.3c5.7-58.3,41.3-82.6,64.8-85.1c6.5-0.8,12.2-0.8,17.8-0.8c33.2,0,47,10.5,74.5,42.9l42.9,51
		l42.9-51c27.5-32.4,41.3-42.9,74.5-42.9c5.7,0,11.3,0,17.8,0.8c22.7,2.4,59.1,26.7,64.8,85.1V179H456.1z"/>
</g>
</svg>
